<svg id="guy" xmlns="http://www.w3.org/2000/svg" xmlns:xlink="http://www.w3.org/1999/xlink" width="719.018" height="719.418" viewBox="0 0 719.018 719.418">
  <defs>
    <clipPath id="clip-path">
      <rect id="Rectangle_3" data-name="Rectangle 3" width="718.819" height="718.819"/>
    </clipPath>
  </defs>
  <g id="Base_Cloudy_White_">
    <g id="Group_7" data-name="Group 7">
      <g id="Group_6" data-name="Group 6" clip-path="url(#clip-path)">
        <g id="Base_Cloudy_White_-2" transform="translate(88.721 91.05)">
          <path id="Path_18" data-name="Path 18" d="M597.948,298.912a77.97,77.97,0,0,0-113.746-83.4,77.911,77.911,0,0,0-155.345,0A78,78,0,0,0,213.646,284a79.178,79.178,0,0,0,1.464,14.909,77.947,77.947,0,0,0-74.81,77.872c0,42,34.876,77.939,77.939,77.939a77.413,77.413,0,0,0,54.577-22.363,77.853,77.853,0,0,0,133.647,13.112A77.853,77.853,0,0,0,540.11,432.359a77.892,77.892,0,0,0,132.516-55.575c0-43.063-33.079-76.208-74.677-77.872Z" transform="translate(-135.641 -139.108)" fill="#fff"/>
          <path id="Path_19" data-name="Path 19" d="M545,543.242a6.751,6.751,0,0,0-8.919,2.463c-13.112,21.631-78.2,60.3-127.856,6.123a2.347,2.347,0,0,0-3.528,0c-49.585,54.111-114.745,15.508-127.857-6.123a6.8,6.8,0,0,0-8.919-2.463C163.9,596.953,140.8,507.7,140.8,507.7l7.654,25.292,24.959,28.952,32.147,13.112,24.892.067,34.21-15.974,12.047,2.13,23.961,21.831,37.671,15.841,39.868-8.12,20.3-11.315,7.987-16.373,7.987,16.373,20.3,11.315,39.868,8.12,37.671-15.841,23.894-21.831,12.047-2.13,34.21,15.974,24.892-.067,32.147-13.112,24.959-28.952,7.654-25.292c0,.066-23.1,89.253-127.124,35.542Z" transform="translate(-135.808 -260.839)" fill="#e1e1e1"/>
          <path id="Path_20" data-name="Path 20" d="M651.515,317.1A81.583,81.583,0,0,0,600.4,292.344a85.911,85.911,0,0,0,.732-10.915,82.3,82.3,0,0,0-115.943-75.077,82.262,82.262,0,0,0-162.533,0,82.3,82.3,0,0,0-115.943,75.077,86.741,86.741,0,0,0,.732,10.915,82.232,82.232,0,1,0,61.432,144.429,82.258,82.258,0,0,0,134.978,13.112,82.258,82.258,0,0,0,134.978-13.112A82.293,82.293,0,0,0,651.515,317.1ZM592.279,447.756a73.164,73.164,0,0,1-49.519-19.169l4.326-11.381a4.339,4.339,0,0,0-8.12-3.062l-5.324,13.91a73.6,73.6,0,0,1-126.259,12.313,4.231,4.231,0,0,0-6.922,0A73.6,73.6,0,0,1,274.2,428.055l-5.325-13.91a4.417,4.417,0,0,0-5.591-2.529,4.36,4.36,0,0,0-2.529,5.591l4.326,11.381A73.607,73.607,0,1,1,212.5,300.6h15.308a4.326,4.326,0,0,0,0-8.652H216.031a70.717,70.717,0,0,1-.732-10.583A73.621,73.621,0,0,1,323.92,216.6l13.045,9.451a4.382,4.382,0,0,0,2.529.8,4.355,4.355,0,0,0,2.6-7.854l-11.315-8.187a73.524,73.524,0,0,1,146.16,0L465.621,219a4.346,4.346,0,0,0-.932,6.057,4.235,4.235,0,0,0,3.527,1.8,4.382,4.382,0,0,0,2.529-.8l13.045-9.451a73.621,73.621,0,0,1,108.621,64.76,70.807,70.807,0,0,1-.8,10.583H579.833a4.326,4.326,0,0,0,0,8.652h15.308a73.61,73.61,0,0,1-2.862,147.158Z" transform="translate(-133.3 -136.8)" fill="#2b2263"/>
        </g>
      </g>
    </g>
  </g>
  <g id="Nakie" transform="translate(0.2 0.599)">
    <g id="Group_9" data-name="Group 9">
      <g id="Group_8" data-name="Group 8" clip-path="url(#clip-path)">
        <g id="Nakie-2" transform="translate(69.579 489.329)">
          <path id="Path_21" data-name="Path 21" d="M676.355,967.863C659.915,892.387,631.1,768.99,578.05,761.536,522.009,753.615,486.2,742.7,399.011,742.7s-123.064,10.849-179.106,18.836c-53.046,7.521-81.8,130.918-98.305,206.328Z" transform="translate(-110.446 -738.307)" fill="#fff"/>
          <path id="Path_22" data-name="Path 22" d="M238.2,1030.956c6.19-39.269,23.828-74.211,23.828-99.1,0-4.127,2.463,19.035,5.125,18.3l-7.588,80.8Z" transform="translate(-149.44 -801.4)" fill="#e1e1e1"/>
          <path id="Path_23" data-name="Path 23" d="M412.056,983.4a6.656,6.656,0,1,0,6.656,6.656,6.675,6.675,0,0,0-6.656-6.656Z" transform="translate(-205.356 -818.804)" fill="#2b2263"/>
          <path id="Path_24" data-name="Path 24" d="M681.732,996.405c-1.065-4.992-2.2-10.383-3.461-16.24-8.12-38.6-19.169-91.516-35.608-136.775-20.233-55.708-43-84.661-69.685-88.388-13.777-1.93-26.49-4.127-38.8-6.19C495.7,742.29,459.364,736.1,393.339,736.1S290.974,742.29,252.5,748.812c-12.313,2.063-25.026,4.26-38.8,6.19-26.689,3.794-49.452,32.68-69.685,88.388-16.44,45.326-27.488,98.172-35.608,136.775-1.2,5.79-2.33,11.248-3.461,16.24a4.321,4.321,0,0,0,8.453,1.8c1.065-4.992,2.2-10.449,3.461-16.24,8.053-38.337,19.035-90.917,35.275-135.644C170.9,794.6,192,766.783,214.9,763.521c13.911-2,26.689-4.127,39.069-6.256,38.137-6.456,74.145-12.579,139.438-12.579s101.3,6.123,139.438,12.579c12.38,2.13,25.159,4.26,39.069,6.256,22.9,3.261,43.994,31.082,62.764,82.8,16.24,44.726,27.222,97.24,35.275,135.644,1.2,5.857,2.33,11.248,3.461,16.24a4.26,4.26,0,0,0,4.193,3.394,4.5,4.5,0,0,0,.932-.133,4.167,4.167,0,0,0,3.195-5.058Z" transform="translate(-104.841 -736.1)" fill="#2b2263"/>
          <path id="Path_25" data-name="Path 25" d="M823.952,1030.956c-6.19-39.269-23.827-74.211-23.827-99.1,0-4.127-2.463,19.035-5.125,18.3l7.588,80.8Z" transform="translate(-335.649 -801.4)" fill="#e1e1e1"/>
          <path id="Path_26" data-name="Path 26" d="M657.956,983.4a6.656,6.656,0,1,0,6.656,6.656,6.675,6.675,0,0,0-6.656-6.656Z" transform="translate(-287.592 -818.804)" fill="#2b2263"/>
          <path id="Path_27" data-name="Path 27" d="M281.149,944.015l.266-.266s.066,0,.133.133c0,0-3-3.528-4.459-14.576a4.33,4.33,0,0,0-8.586,1.131c1.464,10.982,4.393,16.24,5.99,18.436-2.063,9.917-11.448,55.442-15.907,98.97a4.243,4.243,0,0,0,3.86,4.726h.466a4.381,4.381,0,0,0,4.326-3.86c4.992-48.454,16.107-99.437,16.173-99.969a4.518,4.518,0,0,0-2.263-4.725Z" transform="translate(-156.248 -799.453)" fill="#2b2263"/>
          <path id="Path_28" data-name="Path 28" d="M805.732,1047.844c-4.459-43.528-13.844-89.054-15.907-98.971,1.6-2.13,4.526-7.454,5.99-18.436a4.33,4.33,0,0,0-8.586-1.131c-1.464,11.048-4.459,14.51-4.459,14.576l.133-.133.266.266a4.21,4.21,0,0,0-2.13,4.726c.133.532,11.182,51.515,16.173,99.969a4.332,4.332,0,0,0,4.326,3.86h.466a4.311,4.311,0,0,0,3.727-4.726Z" transform="translate(-330.94 -799.453)" fill="#2b2263"/>
        </g>
      </g>
    </g>
  </g>
  <path id="Path_29" data-name="Path 29" d="M571.441,458.8a4.318,4.318,0,0,0-4.326,4.326c0,28.952-27.888,52.514-62.231,52.514s-62.231-23.561-62.231-52.514a4.326,4.326,0,0,0-8.652,0c0,33.745,31.814,61.166,70.884,61.166s70.884-27.488,70.884-61.166a4.318,4.318,0,0,0-4.326-4.326Z" transform="translate(-145.141 -153.435)" fill="#2b2263"/>
</svg>
